<?xml version="1.0" encoding="UTF-8" standalone="no"?>
<!DOCTYPE svg PUBLIC "-//W3C//DTD SVG 1.1//EN"
 "http://www.w3.org/Graphics/SVG/1.1/DTD/svg11.dtd">
<!-- Generated by graphviz version 2.47.0 (20210316.0004)
 -->
<!-- Title: dependencies Pages: 1 -->
<svg width="504pt" height="284pt"
 viewBox="0.00 0.00 504.00 284.00" xmlns="http://www.w3.org/2000/svg" xmlns:xlink="http://www.w3.org/1999/xlink">
<g id="graph0" class="graph" transform="scale(1 1) rotate(0) translate(4 280)">
<title>dependencies</title>
<polygon fill="white" stroke="transparent" points="-4,4 -4,-280 500,-280 500,4 -4,4"/>
<text text-anchor="start" x="227.01" y="-42.4" font-family="Times-12" font-weight="bold" font-size="14.00">Legend</text>
<polygon fill="#ffffb3" stroke="transparent" points="14,-10 14,-30 34,-30 34,-10 14,-10"/>
<text text-anchor="start" x="37.63" y="-15.4" font-family="Times-12" font-size="14.00"> &#160;Declarations</text>
<polygon fill="#8dd3c7" stroke="transparent" points="127,-10 127,-30 147,-30 147,-10 127,-10"/>
<text text-anchor="start" x="150.73" y="-15.4" font-family="Times-12" font-size="14.00"> &#160;Module</text>
<polygon fill="#80b1d3" stroke="transparent" points="213,-10 213,-30 233,-30 233,-10 213,-10"/>
<text text-anchor="start" x="236.78" y="-15.4" font-family="Times-12" font-size="14.00"> &#160;Bootstrap</text>
<polygon fill="#fdb462" stroke="transparent" points="310,-10 310,-30 330,-30 330,-10 310,-10"/>
<text text-anchor="start" x="333.67" y="-15.4" font-family="Times-12" font-size="14.00"> &#160;Providers</text>
<polygon fill="#fb8072" stroke="transparent" points="406,-10 406,-30 426,-30 426,-10 406,-10"/>
<text text-anchor="start" x="429.73" y="-15.4" font-family="Times-12" font-size="14.00"> &#160;Exports</text>
<g id="clust1" class="cluster">
<title>cluster_BackendErrorMessagesModule</title>
<polygon fill="none" stroke="black" stroke-dasharray="1,5" points="123,-70 123,-268 373,-268 373,-70 123,-70"/>
</g>
<g id="clust5" class="cluster">
<title>cluster_BackendErrorMessagesModule_exports</title>
<polygon fill="none" stroke="black" points="131,-208 131,-260 365,-260 365,-208 131,-208"/>
</g>
<g id="clust2" class="cluster">
<title>cluster_BackendErrorMessagesModule_declarations</title>
<polygon fill="none" stroke="black" points="133,-78 133,-130 363,-130 363,-78 133,-78"/>
</g>
<!-- BackendErrorMessagesComponent -->
<g id="node1" class="node">
<title>BackendErrorMessagesComponent</title>
<polygon fill="#ffffb3" stroke="black" points="355.27,-122 140.73,-122 140.73,-86 355.27,-86 355.27,-122"/>
<text text-anchor="middle" x="248" y="-99.8" font-family="Times,serif" font-size="14.00">BackendErrorMessagesComponent</text>
</g>
<!-- BackendErrorMessagesModule -->
<g id="node2" class="node">
<title>BackendErrorMessagesModule</title>
<polygon fill="#8dd3c7" stroke="black" points="344.49,-187 341.49,-191 320.49,-191 317.49,-187 151.51,-187 151.51,-151 344.49,-151 344.49,-187"/>
<text text-anchor="middle" x="248" y="-164.8" font-family="Times,serif" font-size="14.00">BackendErrorMessagesModule</text>
</g>
<!-- BackendErrorMessagesComponent&#45;&gt;BackendErrorMessagesModule -->
<g id="edge1" class="edge">
<title>BackendErrorMessagesComponent&#45;&gt;BackendErrorMessagesModule</title>
<path fill="none" stroke="black" d="M248,-122.11C248,-122.11 248,-140.99 248,-140.99"/>
<polygon fill="black" stroke="black" points="244.5,-140.99 248,-150.99 251.5,-140.99 244.5,-140.99"/>
</g>
<!-- BackendErrorMessagesComponent  -->
<g id="node3" class="node">
<title>BackendErrorMessagesComponent </title>
<polygon fill="#fb8072" stroke="black" points="356.77,-252 139.23,-252 139.23,-216 356.77,-216 356.77,-252"/>
<text text-anchor="middle" x="248" y="-229.8" font-family="Times,serif" font-size="14.00">BackendErrorMessagesComponent </text>
</g>
<!-- BackendErrorMessagesModule&#45;&gt;BackendErrorMessagesComponent  -->
<g id="edge2" class="edge">
<title>BackendErrorMessagesModule&#45;&gt;BackendErrorMessagesComponent </title>
<path fill="none" stroke="black" stroke-dasharray="5,2" d="M248,-187.11C248,-187.11 248,-205.99 248,-205.99"/>
<polygon fill="black" stroke="black" points="244.5,-205.99 248,-215.99 251.5,-205.99 244.5,-205.99"/>
</g>
</g>
</svg>
