<?xml version="1.0" encoding="UTF-8" standalone="no"?>
<!DOCTYPE svg PUBLIC "-//W3C//DTD SVG 1.1//EN"
 "http://www.w3.org/Graphics/SVG/1.1/DTD/svg11.dtd">
<!-- Generated by graphviz version 2.47.0 (20210316.0004)
 -->
<!-- Title: dependencies Pages: 1 -->
<svg width="1193pt" height="284pt"
 viewBox="0.00 0.00 1193.00 284.00" xmlns="http://www.w3.org/2000/svg" xmlns:xlink="http://www.w3.org/1999/xlink">
<g id="graph0" class="graph" transform="scale(1 1) rotate(0) translate(4 280)">
<title>dependencies</title>
<polygon fill="white" stroke="transparent" points="-4,4 -4,-280 1189,-280 1189,4 -4,4"/>
<text text-anchor="start" x="571.51" y="-42.4" font-family="Times-12" font-weight="bold" font-size="14.00">Legend</text>
<polygon fill="#ffffb3" stroke="transparent" points="358.5,-10 358.5,-30 378.5,-30 378.5,-10 358.5,-10"/>
<text text-anchor="start" x="382.13" y="-15.4" font-family="Times-12" font-size="14.00"> &#160;Declarations</text>
<polygon fill="#8dd3c7" stroke="transparent" points="471.5,-10 471.5,-30 491.5,-30 491.5,-10 471.5,-10"/>
<text text-anchor="start" x="495.23" y="-15.4" font-family="Times-12" font-size="14.00"> &#160;Module</text>
<polygon fill="#80b1d3" stroke="transparent" points="557.5,-10 557.5,-30 577.5,-30 577.5,-10 557.5,-10"/>
<text text-anchor="start" x="581.28" y="-15.4" font-family="Times-12" font-size="14.00"> &#160;Bootstrap</text>
<polygon fill="#fdb462" stroke="transparent" points="654.5,-10 654.5,-30 674.5,-30 674.5,-10 654.5,-10"/>
<text text-anchor="start" x="678.17" y="-15.4" font-family="Times-12" font-size="14.00"> &#160;Providers</text>
<polygon fill="#fb8072" stroke="transparent" points="750.5,-10 750.5,-30 770.5,-30 770.5,-10 750.5,-10"/>
<text text-anchor="start" x="774.23" y="-15.4" font-family="Times-12" font-size="14.00"> &#160;Exports</text>
<g id="clust1" class="cluster">
<title>cluster_AppModule</title>
<polygon fill="none" stroke="black" stroke-dasharray="1,5" points="8,-70 8,-268 1177,-268 1177,-70 8,-70"/>
</g>
<g id="clust2" class="cluster">
<title>cluster_AppModule_declarations</title>
<polygon fill="none" stroke="black" points="1047,-78 1047,-130 1169,-130 1169,-78 1047,-78"/>
</g>
<g id="clust6" class="cluster">
<title>cluster_AppModule_bootstrap</title>
<polygon fill="none" stroke="black" points="495,-208 495,-260 619,-260 619,-208 495,-208"/>
</g>
<g id="clust7" class="cluster">
<title>cluster_AppModule_providers</title>
<polygon fill="none" stroke="black" points="877,-78 877,-130 1039,-130 1039,-78 877,-78"/>
</g>
<g id="clust4" class="cluster">
<title>cluster_AppModule_imports</title>
<polygon fill="none" stroke="black" points="16,-78 16,-130 869,-130 869,-78 16,-78"/>
</g>
<!-- AppComponent -->
<g id="node1" class="node">
<title>AppComponent</title>
<polygon fill="#ffffb3" stroke="black" points="1160.94,-122 1055.06,-122 1055.06,-86 1160.94,-86 1160.94,-122"/>
<text text-anchor="middle" x="1108" y="-99.8" font-family="Times,serif" font-size="14.00">AppComponent</text>
</g>
<!-- AppModule -->
<g id="node2" class="node">
<title>AppModule</title>
<polygon fill="#8dd3c7" stroke="black" points="598.66,-187 595.66,-191 574.66,-191 571.66,-187 515.34,-187 515.34,-151 598.66,-151 598.66,-187"/>
<text text-anchor="middle" x="557" y="-164.8" font-family="Times,serif" font-size="14.00">AppModule</text>
</g>
<!-- AppComponent&#45;&gt;AppModule -->
<g id="edge1" class="edge">
<title>AppComponent&#45;&gt;AppModule</title>
<path fill="none" stroke="black" d="M1108,-122.01C1108,-144.49 1108,-180 1108,-180 1108,-180 608.87,-180 608.87,-180"/>
<polygon fill="black" stroke="black" points="608.87,-176.5 598.87,-180 608.87,-183.5 608.87,-176.5"/>
</g>
<!-- AppComponent  -->
<g id="node10" class="node">
<title>AppComponent </title>
<polygon fill="#80b1d3" stroke="black" points="611.44,-252 502.56,-252 502.56,-216 611.44,-216 611.44,-252"/>
<text text-anchor="middle" x="557" y="-229.8" font-family="Times,serif" font-size="14.00">AppComponent </text>
</g>
<!-- AppModule&#45;&gt;AppComponent  -->
<g id="edge9" class="edge">
<title>AppModule&#45;&gt;AppComponent </title>
<path fill="none" stroke="black" stroke-dasharray="1,5" d="M557,-187.11C557,-187.11 557,-205.99 557,-205.99"/>
<polygon fill="black" stroke="black" points="553.5,-205.99 557,-215.99 560.5,-205.99 553.5,-205.99"/>
</g>
<!-- AppRoutingModule -->
<g id="node3" class="node">
<title>AppRoutingModule</title>
<polygon fill="#8dd3c7" stroke="black" points="861.27,-122 858.27,-126 837.27,-126 834.27,-122 732.73,-122 732.73,-86 861.27,-86 861.27,-122"/>
<text text-anchor="middle" x="797" y="-99.8" font-family="Times,serif" font-size="14.00">AppRoutingModule</text>
</g>
<!-- AppRoutingModule&#45;&gt;AppModule -->
<g id="edge2" class="edge">
<title>AppRoutingModule&#45;&gt;AppModule</title>
<path fill="none" stroke="black" d="M797,-122.27C797,-140.56 797,-166 797,-166 797,-166 608.8,-166 608.8,-166"/>
<polygon fill="black" stroke="black" points="608.8,-162.5 598.8,-166 608.8,-169.5 608.8,-162.5"/>
</g>
<!-- AuthModule -->
<g id="node4" class="node">
<title>AuthModule</title>
<polygon fill="#8dd3c7" stroke="black" points="714.55,-122 711.55,-126 690.55,-126 687.55,-122 627.45,-122 627.45,-86 714.55,-86 714.55,-122"/>
<text text-anchor="middle" x="671" y="-99.8" font-family="Times,serif" font-size="14.00">AuthModule</text>
</g>
<!-- AuthModule&#45;&gt;AppModule -->
<g id="edge3" class="edge">
<title>AuthModule&#45;&gt;AppModule</title>
<path fill="none" stroke="black" d="M671,-122.01C671,-138.05 671,-159 671,-159 671,-159 608.8,-159 608.8,-159"/>
<polygon fill="black" stroke="black" points="608.8,-155.5 598.8,-159 608.8,-162.5 608.8,-155.5"/>
</g>
<!-- CounterModule -->
<g id="node5" class="node">
<title>CounterModule</title>
<polygon fill="#8dd3c7" stroke="black" points="609.15,-122 606.15,-126 585.15,-126 582.15,-122 504.85,-122 504.85,-86 609.15,-86 609.15,-122"/>
<text text-anchor="middle" x="557" y="-99.8" font-family="Times,serif" font-size="14.00">CounterModule</text>
</g>
<!-- CounterModule&#45;&gt;AppModule -->
<g id="edge4" class="edge">
<title>CounterModule&#45;&gt;AppModule</title>
<path fill="none" stroke="black" d="M557,-122.11C557,-122.11 557,-140.99 557,-140.99"/>
<polygon fill="black" stroke="black" points="553.5,-140.99 557,-150.99 560.5,-140.99 553.5,-140.99"/>
</g>
<!-- FakeapiModule -->
<g id="node6" class="node">
<title>FakeapiModule</title>
<polygon fill="#8dd3c7" stroke="black" points="486.87,-122 483.87,-126 462.87,-126 459.87,-122 383.13,-122 383.13,-86 486.87,-86 486.87,-122"/>
<text text-anchor="middle" x="435" y="-99.8" font-family="Times,serif" font-size="14.00">FakeapiModule</text>
</g>
<!-- FakeapiModule&#45;&gt;AppModule -->
<g id="edge5" class="edge">
<title>FakeapiModule&#45;&gt;AppModule</title>
<path fill="none" stroke="black" d="M435,-122.01C435,-138.05 435,-159 435,-159 435,-159 505.01,-159 505.01,-159"/>
<polygon fill="black" stroke="black" points="505.01,-162.5 515.01,-159 505.01,-155.5 505.01,-162.5"/>
</g>
<!-- MainModule -->
<g id="node7" class="node">
<title>MainModule</title>
<polygon fill="#8dd3c7" stroke="black" points="365.6,-122 362.6,-126 341.6,-126 338.6,-122 276.4,-122 276.4,-86 365.6,-86 365.6,-122"/>
<text text-anchor="middle" x="321" y="-99.8" font-family="Times,serif" font-size="14.00">MainModule</text>
</g>
<!-- MainModule&#45;&gt;AppModule -->
<g id="edge6" class="edge">
<title>MainModule&#45;&gt;AppModule</title>
<path fill="none" stroke="black" d="M321,-122.27C321,-140.56 321,-166 321,-166 321,-166 505.08,-166 505.08,-166"/>
<polygon fill="black" stroke="black" points="505.08,-169.5 515.08,-166 505.08,-162.5 505.08,-169.5"/>
</g>
<!-- NotFoundModule -->
<g id="node8" class="node">
<title>NotFoundModule</title>
<polygon fill="#8dd3c7" stroke="black" points="258.33,-122 255.33,-126 234.33,-126 231.33,-122 141.67,-122 141.67,-86 258.33,-86 258.33,-122"/>
<text text-anchor="middle" x="200" y="-99.8" font-family="Times,serif" font-size="14.00">NotFoundModule</text>
</g>
<!-- NotFoundModule&#45;&gt;AppModule -->
<g id="edge7" class="edge">
<title>NotFoundModule&#45;&gt;AppModule</title>
<path fill="none" stroke="black" d="M200,-122.13C200,-142.57 200,-173 200,-173 200,-173 505,-173 505,-173"/>
<polygon fill="black" stroke="black" points="505,-176.5 515,-173 505,-169.5 505,-176.5"/>
</g>
<!-- TopbarModule -->
<g id="node9" class="node">
<title>TopbarModule</title>
<polygon fill="#8dd3c7" stroke="black" points="123.98,-122 120.98,-126 99.98,-126 96.98,-122 24.02,-122 24.02,-86 123.98,-86 123.98,-122"/>
<text text-anchor="middle" x="74" y="-99.8" font-family="Times,serif" font-size="14.00">TopbarModule</text>
</g>
<!-- TopbarModule&#45;&gt;AppModule -->
<g id="edge8" class="edge">
<title>TopbarModule&#45;&gt;AppModule</title>
<path fill="none" stroke="black" d="M74,-122.01C74,-144.49 74,-180 74,-180 74,-180 504.98,-180 504.98,-180"/>
<polygon fill="black" stroke="black" points="504.98,-183.5 514.98,-180 504.98,-176.5 504.98,-183.5"/>
</g>
<!-- AuthInterceptor -->
<g id="node11" class="node">
<title>AuthInterceptor</title>
<ellipse fill="#fdb462" stroke="black" cx="958" cy="-104" rx="72.91" ry="18"/>
<text text-anchor="middle" x="958" y="-99.8" font-family="Times,serif" font-size="14.00">AuthInterceptor</text>
</g>
<!-- AuthInterceptor&#45;&gt;AppModule -->
<g id="edge10" class="edge">
<title>AuthInterceptor&#45;&gt;AppModule</title>
<path fill="none" stroke="black" d="M958,-122.13C958,-142.57 958,-173 958,-173 958,-173 608.78,-173 608.78,-173"/>
<polygon fill="black" stroke="black" points="608.78,-169.5 598.78,-173 608.78,-176.5 608.78,-169.5"/>
</g>
</g>
</svg>
